<svg width="226" height="182" viewBox="0 0 226 182" fill="none" xmlns="http://www.w3.org/2000/svg">
<g clip-path="url(#clip0_788_2794)">
<path d="M216.587 0.000289248H149.047C145.788 0.000129627 142.625 1.10889 140.08 3.14431C137.534 5.17973 135.757 8.02067 135.04 11.2001L100.914 162.571C100.542 164.222 100.535 165.935 100.895 167.589C101.254 169.243 101.971 170.798 102.996 172.145C104.02 173.493 105.326 174.6 106.824 175.389C108.321 176.178 109.973 176.63 111.663 176.713L181.095 180.134C184.813 180.317 188.47 179.141 191.385 176.826C194.299 174.511 196.272 171.214 196.935 167.551L216.294 60.5304L217.735 60.9419L221.44 40.6573L219.957 40.2868L225.361 10.4133C225.593 9.13374 225.539 7.81883 225.204 6.56233C224.869 5.30584 224.261 4.1387 223.424 3.14414C222.586 2.14958 221.539 1.35209 220.358 0.808523C219.176 0.264955 217.89 -0.0113023 216.589 -0.000552381L216.587 0.000289248Z" fill="#FF002E"/>
<path d="M157.937 3.26343H150.054C147.79 3.26345 145.594 4.03778 143.83 5.45787C142.067 6.87797 140.842 8.85842 140.36 11.0705L107.602 161.206C107.414 162.071 107.414 162.966 107.603 163.83C107.792 164.695 108.165 165.508 108.697 166.215C109.229 166.922 109.908 167.505 110.686 167.926C111.465 168.346 112.325 168.594 113.208 168.652L182.414 173.188C184.366 173.316 186.297 172.72 187.839 171.515C189.38 170.31 190.424 168.58 190.771 166.654L218.723 11.4738C218.904 10.4694 218.862 9.4376 218.601 8.45112C218.339 7.46463 217.864 6.54753 217.21 5.76455C216.555 4.98156 215.737 4.35177 214.812 3.91961C213.888 3.48745 212.88 3.26345 211.859 3.26343H204.381C203.657 3.26341 202.953 3.50202 202.378 3.94232C201.804 4.38262 201.391 5.00006 201.202 5.69904C201.036 6.31633 200.671 6.86159 200.164 7.25036C199.656 7.63913 199.035 7.8497 198.395 7.84946H162.89C161.639 7.84942 160.434 7.37709 159.515 6.52688C158.597 5.67666 158.033 4.5112 157.937 3.26343Z" fill="white"/>
<path d="M196.195 108.221C196.329 108.226 196.461 108.182 196.566 108.097C196.671 108.013 196.742 107.894 196.766 107.761L212.071 23.2947C212.085 23.2145 212.082 23.132 212.062 23.0529C212.042 22.9739 212.005 22.9001 211.954 22.8366C211.903 22.7737 211.839 22.7227 211.766 22.6874C211.693 22.652 211.613 22.6331 211.533 22.632L141.903 21.8096H141.897C141.77 21.8106 141.648 21.8546 141.55 21.9343C141.452 22.0139 141.383 22.1245 141.356 22.248L123.314 103.973C123.297 104.053 123.296 104.135 123.314 104.215C123.331 104.295 123.365 104.37 123.414 104.436C123.463 104.5 123.525 104.554 123.596 104.592C123.668 104.63 123.747 104.652 123.828 104.656L196.195 108.221Z" fill="#E6E6E6"/>
<path d="M135.77 113.682C135.707 113.682 135.646 113.704 135.596 113.743C135.547 113.783 135.512 113.838 135.497 113.899L134.845 116.694C134.836 116.733 134.835 116.774 134.844 116.814C134.852 116.854 134.868 116.891 134.892 116.924C134.916 116.957 134.947 116.984 134.983 117.003C135.018 117.023 135.057 117.035 135.098 117.038L171.934 119.656C172.002 119.66 172.07 119.64 172.124 119.598C172.178 119.556 172.216 119.496 172.229 119.429L172.856 116.196C172.864 116.157 172.863 116.116 172.854 116.078C172.845 116.039 172.827 116.002 172.803 115.971C172.778 115.939 172.747 115.913 172.712 115.894C172.676 115.876 172.638 115.865 172.598 115.863L135.788 113.683L135.77 113.682Z" fill="#E6E6E6"/>
<path d="M180.524 130.036C180.591 130.042 180.657 130.023 180.711 129.984C180.765 129.945 180.803 129.888 180.819 129.824L181.618 126.584C181.627 126.544 181.628 126.502 181.62 126.462C181.613 126.422 181.596 126.384 181.572 126.351C181.548 126.318 181.517 126.291 181.481 126.271C181.445 126.251 181.406 126.239 181.365 126.236L134.323 122.946C134.259 122.941 134.196 122.958 134.143 122.995C134.09 123.031 134.052 123.085 134.034 123.146L133.205 125.946C133.193 125.986 133.19 126.029 133.197 126.07C133.203 126.111 133.219 126.15 133.243 126.185C133.266 126.219 133.297 126.248 133.333 126.269C133.369 126.29 133.41 126.302 133.451 126.306L180.524 130.036Z" fill="#E6E6E6"/>
<path d="M177.998 140.422C178.064 140.428 178.13 140.409 178.185 140.37C178.239 140.331 178.277 140.274 178.293 140.209L179.091 136.969C179.101 136.93 179.102 136.888 179.094 136.848C179.086 136.808 179.07 136.77 179.046 136.737C179.022 136.704 178.991 136.676 178.955 136.657C178.919 136.637 178.879 136.625 178.839 136.622L131.797 133.332C131.733 133.327 131.669 133.344 131.617 133.381C131.564 133.417 131.526 133.471 131.508 133.532L130.678 136.332C130.667 136.372 130.664 136.414 130.67 136.456C130.677 136.497 130.693 136.536 130.716 136.57C130.74 136.605 130.771 136.634 130.807 136.655C130.843 136.675 130.883 136.688 130.925 136.691L177.998 140.422Z" fill="#E6E6E6"/>
<path d="M96.4362 176.985C96.4362 179.334 74.9334 179.585 48.4681 181.239C22.0264 182.891 0.5 179.334 0.5 176.985C0.5 174.636 22.1269 169.91 48.4681 172.732C74.9334 175.568 96.4362 174.636 96.4362 176.985Z" fill="#E6E6E6"/>
<path d="M156.332 158.177C156.399 158.184 156.466 158.166 156.521 158.127C156.576 158.088 156.615 158.031 156.631 157.965L158.318 151.214C158.328 151.175 158.33 151.134 158.322 151.094C158.314 151.054 158.298 151.016 158.275 150.983C158.251 150.949 158.22 150.922 158.185 150.902C158.15 150.882 158.11 150.869 158.07 150.866L129.181 148.436C129.114 148.432 129.047 148.451 128.993 148.491C128.938 148.531 128.9 148.589 128.884 148.655L127.444 155.134C127.436 155.173 127.435 155.214 127.443 155.253C127.451 155.292 127.468 155.328 127.491 155.361C127.515 155.393 127.545 155.42 127.579 155.439C127.614 155.459 127.652 155.471 127.692 155.475L156.332 158.177Z" fill="#F39C12"/>
<path d="M39.6878 130.667C40.0516 130.417 40.3563 130.091 40.5804 129.712C40.8045 129.332 40.9426 128.907 40.9849 128.469C41.0272 128.03 40.9728 127.587 40.8254 127.171C40.678 126.756 40.4413 126.377 40.1319 126.063L41.3016 99.9532L35.3466 100.622L35.6927 126.161C35.1988 126.715 34.9256 127.432 34.9248 128.174C34.924 128.917 35.1957 129.633 35.6884 130.189C36.181 130.744 36.8604 131.1 37.5977 131.188C38.3349 131.275 39.0787 131.09 39.6881 130.665L39.6878 130.667Z" fill="#A0616A"/>
<path d="M50.5518 174.865L53.9412 175.461L57.291 162.671L52.8501 161.792L50.5518 174.865Z" fill="#A0616A"/>
<path d="M59.9258 179.757L49.2736 177.884L49.9971 173.769L56.5337 174.918C57.6252 175.11 58.5958 175.728 59.232 176.635C59.8681 177.543 60.1177 178.666 59.9258 179.757L59.9258 179.757Z" fill="#2F2E41"/>
<path d="M41.2486 176.561H44.69L46.327 163.288H41.248L41.2486 176.561Z" fill="#A0616A"/>
<path d="M51.3262 179.757L40.5106 179.758L40.5104 175.579L47.1472 175.579C48.2555 175.579 49.3184 176.019 50.1021 176.803C50.8858 177.586 51.3261 178.649 51.3262 179.757Z" fill="#2F2E41"/>
<path d="M55.6064 171.804C55.5528 171.804 55.4992 171.801 55.4459 171.794L51.3954 171.461C51.211 171.439 51.0329 171.38 50.872 171.288C50.7111 171.195 50.5706 171.071 50.4593 170.922C50.3479 170.774 50.2678 170.604 50.224 170.423C50.1802 170.243 50.1736 170.056 50.2044 169.872L54.2254 150.032L51.6991 136.707C51.6786 136.598 51.6195 136.501 51.5329 136.433C51.4462 136.365 51.3379 136.33 51.2278 136.336C51.1177 136.341 51.0133 136.386 50.9339 136.463C50.8544 136.539 50.8053 136.642 50.7956 136.752L47.0732 170.611C47.0385 170.968 46.8666 171.297 46.5937 171.53C46.3209 171.762 45.9685 171.879 45.6108 171.857L41.7947 171.715C41.4603 171.691 41.1462 171.546 40.9116 171.306C40.6771 171.067 40.5383 170.75 40.5215 170.415L40.8263 129.498L60.6102 127.025L61.9923 148.37L61.9867 148.392L56.9367 170.757C56.864 171.055 56.6934 171.32 56.4523 171.51C56.2111 171.7 55.9133 171.803 55.6064 171.804Z" fill="#2F2E41"/>
<path d="M47.3503 83.0348C51.1578 83.0348 54.2445 79.9481 54.2445 76.1405C54.2445 72.333 51.1578 69.2463 47.3503 69.2463C43.5427 69.2463 40.4561 72.333 40.4561 76.1405C40.4561 79.9481 43.5427 83.0348 47.3503 83.0348Z" fill="#A0616A"/>
<path d="M53.8463 132.612C52.768 132.618 51.7105 132.316 50.7987 131.74C47.4584 129.653 43.6659 130.482 41.7022 131.163C41.5073 131.231 41.2995 131.254 41.0943 131.231C40.8891 131.207 40.6919 131.138 40.5174 131.028C40.3448 130.919 40.1991 130.773 40.0909 130.601C39.9828 130.428 39.9152 130.233 39.8931 130.031L36.3223 98.1363C35.7239 92.7924 38.9429 87.7682 43.9764 86.1898C44.1656 86.1305 44.3579 86.0743 44.5532 86.0214C46.1196 85.5967 47.76 85.5205 49.359 85.798C50.958 86.0756 52.4767 86.7001 53.8084 87.6278C55.1648 88.5656 56.2993 89.7894 57.1318 91.2129C57.9644 92.6364 58.4748 94.2251 58.6271 95.8671L61.6337 127.975C61.6541 128.183 61.6261 128.393 61.5517 128.588C61.4773 128.783 61.3587 128.958 61.205 129.1C60.1507 130.075 57.0917 132.612 53.8463 132.612Z" fill="#FF002E"/>
<path d="M42.9717 104.976L34.9157 104.09C34.6865 104.065 34.4653 103.99 34.2674 103.872C34.0695 103.754 33.8994 103.594 33.7687 103.404C33.6381 103.214 33.5499 102.998 33.5102 102.771C33.4706 102.544 33.4803 102.31 33.5389 102.087L35.5897 94.2711C35.6501 93.6853 35.826 93.1172 36.1073 92.5997C36.3885 92.0823 36.7696 91.6257 37.2283 91.2564C37.6871 90.887 38.2145 90.6123 38.7801 90.448C39.3457 90.2837 39.9382 90.2332 40.5234 90.2993C41.1087 90.3653 41.675 90.5467 42.1897 90.833C42.7044 91.1193 43.1573 91.5047 43.5222 91.967C43.887 92.4293 44.1567 92.9594 44.3155 93.5265C44.4743 94.0937 44.5191 94.6867 44.4474 95.2712L44.7519 103.32C44.7606 103.551 44.7196 103.78 44.6315 103.994C44.5435 104.207 44.4105 104.399 44.2416 104.556C44.0728 104.713 43.8721 104.832 43.6531 104.904C43.4342 104.977 43.2021 105.002 42.9729 104.976L42.9717 104.976Z" fill="#FF002E"/>
<path d="M61.6008 129.549C61.9317 129.257 62.1947 128.897 62.3713 128.493C62.5479 128.089 62.6338 127.651 62.6229 127.211C62.6121 126.77 62.5047 126.337 62.3084 125.942C62.1121 125.547 61.8317 125.201 61.4868 124.926L59.5014 98.8655L53.666 100.179L57.0905 125.558C56.6671 126.168 56.4821 126.912 56.5708 127.649C56.6595 128.386 57.0156 129.065 57.5716 129.557C58.1276 130.049 58.8448 130.32 59.5873 130.319C60.3298 130.317 61.0458 130.043 61.5996 129.549H61.6008Z" fill="#A0616A"/>
<path d="M51.4294 103.338C51.2605 103.181 51.1275 102.989 51.0395 102.776C50.9514 102.563 50.9103 102.333 50.9191 102.102L51.2237 94.0535C51.158 93.4719 51.2075 92.883 51.3694 92.3206C51.5313 91.7581 51.8024 91.233 52.1673 90.7754C52.5321 90.3177 52.9835 89.9363 53.4957 89.6531C54.0079 89.3698 54.5709 89.1902 55.1525 89.1246C55.7341 89.0589 56.3229 89.1084 56.8854 89.2703C57.4478 89.4322 57.9729 89.7033 58.4306 90.0682C58.8883 90.433 59.2696 90.8844 59.5529 91.3966C59.8361 91.9088 60.0157 92.4718 60.0814 93.0534L62.1321 100.87C62.1907 101.093 62.2005 101.326 62.1608 101.553C62.1211 101.78 62.033 101.996 61.9023 102.186C61.7716 102.376 61.6016 102.536 61.4036 102.654C61.2057 102.773 60.9846 102.847 60.7553 102.872L52.6993 103.758C52.47 103.783 52.2379 103.759 52.019 103.686C51.8 103.613 51.5993 103.494 51.4306 103.337L51.4294 103.338Z" fill="#FF002E"/>
<path d="M46.94 83.2945C46.8171 83.2944 46.6947 83.2802 46.5751 83.2521L46.54 83.2437C40.4786 82.3174 39.1389 78.8053 38.845 77.3392C38.5407 75.8212 38.8871 74.3559 39.6702 73.7867C39.2433 72.4393 39.3118 71.2433 39.8743 70.2325C40.8567 68.4697 42.9847 67.8746 43.2707 67.8005C44.9712 66.5461 47.0057 67.3834 47.3759 67.5532C50.6654 66.3364 51.9232 67.3492 52.15 67.5754C53.6203 67.8396 54.5166 68.4074 54.8141 69.2641C55.373 70.8728 53.6057 72.8739 53.5302 72.9584L53.4909 73.0021L50.858 73.1276C50.6081 73.1395 50.3636 73.2038 50.1402 73.3164C49.9168 73.4289 49.7196 73.5871 49.5613 73.7808C49.403 73.9744 49.2872 74.1992 49.2213 74.4405C49.1555 74.6818 49.1411 74.9343 49.1791 75.1815C49.2504 75.5004 49.3403 75.8149 49.4486 76.1232C49.8977 77.5284 50.2346 78.7289 49.8006 79.1853C49.7021 79.2736 49.5808 79.3324 49.4505 79.355C49.3202 79.3776 49.1862 79.3631 49.0638 79.3131C48.652 79.203 48.3727 79.226 48.2335 79.3818C48.0173 79.6229 48.0833 80.2337 48.4193 81.1011C48.5247 81.3754 48.5531 81.6734 48.5013 81.9627C48.4496 82.2519 48.3197 82.5216 48.1257 82.7423C47.9796 82.9146 47.7979 83.0532 47.5931 83.1485C47.3883 83.2438 47.1653 83.2936 46.9394 83.2945H46.94Z" fill="#2F2E41"/>
</g>
<defs>
<clipPath id="clip0_788_2794">
<rect width="225" height="181.662" fill="white" transform="translate(0.5)"/>
</clipPath>
</defs>
</svg>
