<svg width="229" height="365" viewBox="0 0 229 365" fill="none" xmlns="http://www.w3.org/2000/svg">
<path d="M310.409 145.865C310.409 120.899 302.698 101.589 287.275 87.9356C271.852 74.2823 251.451 67.4556 226.072 67.4556C204.597 67.4556 186.148 74.8674 170.725 89.691C155.302 104.515 147.591 122.264 147.591 142.939C147.591 154.642 149.153 165.174 152.276 174.536C155.4 183.704 159.597 191.408 164.868 197.65C170.335 203.696 176.777 208.767 184.196 212.863C191.614 216.764 199.326 219.592 207.33 221.348C215.529 223.103 224.217 223.981 233.393 223.981C255.648 223.981 275.952 218.52 294.303 207.597V228.662C275.366 238.609 254.965 243.583 233.1 243.583C219.043 243.583 205.768 241.73 193.274 238.024C180.974 234.123 169.749 228.37 159.597 220.763C149.445 212.961 141.344 202.428 135.292 189.165C129.435 175.707 126.506 160.298 126.506 142.939C126.506 116.022 135.975 93.2018 154.912 74.4773C173.849 55.7528 197.569 46.3905 226.072 46.3905C257.503 46.3905 282.882 55.2652 302.21 73.0145C321.732 90.5687 331.494 114.852 331.494 145.865V353.59H310.409V145.865ZM373.662 145.865V353.59H352.578V145.865C352.578 109.001 340.767 79.7436 317.145 58.0934C293.522 36.2481 263.165 25.3254 226.072 25.3254C191.712 25.3254 163.014 36.7357 139.977 59.5562C116.94 82.3767 105.422 110.171 105.422 142.939C105.422 162.834 108.838 180.68 115.671 196.479C122.699 212.278 132.168 224.956 144.077 234.513C155.986 244.071 169.261 251.385 183.903 256.456C198.74 261.332 214.358 263.771 230.757 263.771C253.013 263.771 274.195 258.602 294.303 248.264V270.5C273.219 279.277 251.939 283.665 230.464 283.665C211.137 283.665 192.786 280.74 175.41 274.888C158.035 268.842 142.515 260.162 128.849 248.849C115.183 237.342 104.348 222.518 96.344 204.379C88.3397 186.044 84.3376 165.564 84.3376 142.939C84.3376 104.515 97.9058 71.8442 125.042 44.9277C152.374 17.8161 186.05 4.26035 226.072 4.26035C254.184 4.26035 279.368 10.0142 301.624 21.522C323.88 32.8348 341.45 49.3162 354.335 70.9665C367.22 92.6167 373.662 117.583 373.662 145.865ZM415.831 145.865V353.59H394.747V145.865C394.747 113.682 387.328 85.2049 372.491 60.4339C357.849 35.4679 337.741 16.3533 312.166 3.09007C286.592 -10.1731 257.893 -16.8047 226.072 -16.8047C195.812 -16.8047 168.187 -9.58799 143.198 4.8455C118.209 19.0839 98.5891 38.3936 84.3376 62.7745C70.2813 87.1554 63.2532 113.877 63.2532 142.939C63.2532 167.905 67.841 190.725 77.0166 211.4C86.1922 231.88 98.4915 248.752 113.914 262.015C129.532 275.278 147.2 285.616 166.918 293.028C186.831 300.244 207.623 303.853 229.293 303.853C251.353 303.853 273.023 299.269 294.303 290.102V311.46C272.047 319.847 250.182 324.04 228.707 324.04C194.933 324.04 163.892 316.433 135.584 301.22C107.277 286.006 84.6304 264.453 67.6458 236.561C50.6611 208.67 42.1688 177.462 42.1688 142.939C42.1688 118.363 46.8542 94.9573 56.2251 72.7219C65.7911 50.4865 78.676 31.2744 94.8798 15.0855C111.084 -1.10345 130.606 -13.9766 153.448 -23.5339C176.289 -33.0912 200.497 -37.8698 226.072 -37.8698C261.798 -37.8698 294.01 -30.263 322.708 -15.0493C351.602 0.16436 374.346 21.8146 390.94 49.9014C407.534 77.9882 415.831 109.976 415.831 145.865ZM458 145.865V353.59H436.916V145.865C436.916 106.075 427.642 70.5764 409.096 39.3688C390.549 7.96625 365.268 -16.2196 333.251 -33.1887C301.234 -50.3528 265.507 -58.9349 226.072 -58.9349C188.198 -58.9349 153.545 -49.8652 122.114 -31.7258C90.6824 -13.5865 65.9864 10.9895 48.0256 42.002C30.0648 72.8194 21.0844 106.465 21.0844 142.939C21.0844 166.93 24.8913 189.75 32.5051 211.4C40.3141 232.856 50.8563 251.678 64.1317 267.867C77.6023 283.86 93.0251 297.709 110.4 309.412C127.971 321.114 146.81 329.989 166.918 336.035C187.222 342.082 207.818 345.105 228.707 345.105C251.744 345.105 273.609 340.717 294.303 331.94V353.59C272.633 361.197 250.377 365 227.536 365C203.913 365 180.877 361.684 158.426 355.053C136.17 348.421 115.476 338.669 96.344 325.796C77.4071 312.727 60.7153 297.416 46.2685 279.862C31.8218 262.113 20.4987 241.438 12.2992 217.837C4.09974 194.236 0 169.27 0 142.939C0 112.707 5.66155 83.9371 16.9847 56.6305C28.503 29.1289 44.1211 5.43063 63.8389 -14.4642C83.7519 -34.554 107.765 -50.4504 135.877 -62.1532C164.185 -74.0511 194.25 -80 226.072 -80C258.479 -80 288.934 -74.5387 317.437 -63.616C345.94 -52.6934 370.539 -37.4797 391.233 -17.975C411.927 1.33465 428.228 25.1304 440.137 53.4122C452.046 81.6941 458 112.511 458 145.865Z" fill="#34495E" fill-opacity="0.06"/>
</svg>
